<?xml version="1.0" encoding="UTF-8" standalone="no"?>
<!DOCTYPE svg PUBLIC "-//W3C//DTD SVG 1.1//EN"
 "http://www.w3.org/Graphics/SVG/1.1/DTD/svg11.dtd">
<!-- Generated by graphviz version 2.40.1 (20161225.0304)
 -->
<!-- Title: G Pages: 1 -->
<svg width="444pt" height="622pt"
 viewBox="0.00 0.00 444.00 622.16" xmlns="http://www.w3.org/2000/svg" xmlns:xlink="http://www.w3.org/1999/xlink">
<g id="graph0" class="graph" transform="scale(1 1) rotate(0) translate(4 618.1564)">
<title>G</title>
<polygon fill="#ffffff" stroke="transparent" points="-4,4 -4,-618.1564 440,-618.1564 440,4 -4,4"/>
<g id="clust1" class="cluster">
<title>cluster_0</title>
<polygon fill="#d3d3d3" stroke="#d3d3d3" points="8,-8 8,-606.1564 428,-606.1564 428,-8 8,-8"/>
</g>
<!-- kursReps -->
<g id="node1" class="node">
<title>kursReps</title>
<ellipse fill="#ffffff" stroke="#ffffff" cx="218" cy="-568.7408" rx="86.7306" ry="29.3315"/>
<text text-anchor="middle" x="218" y="-572.9408" font-family="Times,serif" font-size="14.00" fill="#000000">Kursrepresentanter</text>
<text text-anchor="middle" x="218" y="-556.1408" font-family="Times,serif" font-size="14.00" fill="#000000"> slumpas fram</text>
</g>
<!-- kursStart -->
<g id="node2" class="node">
<title>kursStart</title>
<ellipse fill="#ffffff" stroke="#ffffff" cx="218" cy="-485.3251" rx="91.4097" ry="18"/>
<text text-anchor="middle" x="218" y="-481.1251" font-family="Times,serif" font-size="14.00" fill="#000000">LV1 &#45; Kursen startar</text>
</g>
<!-- kursReps&#45;&gt;kursStart -->
<g id="edge1" class="edge">
<title>kursReps&#45;&gt;kursStart</title>
<path fill="none" stroke="#000000" d="M218,-539.0967C218,-530.8915 218,-522.0047 218,-513.8639"/>
<polygon fill="#000000" stroke="#000000" points="221.5001,-513.7117 218,-503.7117 214.5001,-513.7117 221.5001,-513.7117"/>
</g>
<!-- mittMeet -->
<g id="node3" class="node">
<title>mittMeet</title>
<ellipse fill="#ffffff" stroke="#ffffff" cx="218" cy="-401.9095" rx="123.1799" ry="29.3315"/>
<text text-anchor="middle" x="218" y="-406.1095" font-family="Times,serif" font-size="14.00" fill="#000000">LV4 &#45; Mittmöte för kursen</text>
<text text-anchor="middle" x="218" y="-389.3095" font-family="Times,serif" font-size="14.00" fill="#000000"> hålls</text>
</g>
<!-- kursStart&#45;&gt;mittMeet -->
<g id="edge2" class="edge">
<title>kursStart&#45;&gt;mittMeet</title>
<path fill="none" stroke="#000000" d="M218,-467.2252C218,-459.6357 218,-450.4911 218,-441.4799"/>
<polygon fill="#000000" stroke="#000000" points="221.5001,-441.4526 218,-431.4526 214.5001,-441.4527 221.5001,-441.4526"/>
</g>
<!-- kursEnk -->
<g id="node4" class="node">
<title>kursEnk</title>
<ellipse fill="#ffffff" stroke="#ffffff" cx="218" cy="-307.0782" rx="103.2593" ry="29.3315"/>
<text text-anchor="middle" x="218" y="-311.2782" font-family="Times,serif" font-size="14.00" fill="#000000">LV8 &#45; Tenta skrivs och</text>
<text text-anchor="middle" x="218" y="-294.4782" font-family="Times,serif" font-size="14.00" fill="#000000">kursenkät skickas ut</text>
</g>
<!-- mittMeet&#45;&gt;kursEnk -->
<g id="edge3" class="edge">
<title>mittMeet&#45;&gt;kursEnk</title>
<path fill="none" stroke="#000000" d="M218,-372.4241C218,-364.3067 218,-355.3671 218,-346.7749"/>
<polygon fill="#000000" stroke="#000000" points="221.5001,-346.5453 218,-336.5454 214.5001,-346.5454 221.5001,-346.5453"/>
</g>
<!-- kursNamnd -->
<g id="node5" class="node">
<title>kursNamnd</title>
<ellipse fill="#ffffff" stroke="#ffffff" cx="218" cy="-212.2469" rx="84.5568" ry="29.3315"/>
<text text-anchor="middle" x="218" y="-216.4469" font-family="Times,serif" font-size="14.00" fill="#000000">Kursnämndsmöte</text>
<text text-anchor="middle" x="218" y="-199.6469" font-family="Times,serif" font-size="14.00" fill="#000000">hålls</text>
</g>
<!-- kursEnk&#45;&gt;kursNamnd -->
<g id="edge4" class="edge">
<title>kursEnk&#45;&gt;kursNamnd</title>
<path fill="none" stroke="#000000" d="M218,-277.5928C218,-269.4754 218,-260.5358 218,-251.9436"/>
<polygon fill="#000000" stroke="#000000" points="221.5001,-251.714 218,-241.7141 214.5001,-251.7141 221.5001,-251.714"/>
</g>
<!-- bajs -->
<g id="node6" class="node">
<title>bajs</title>
<ellipse fill="#ffffff" stroke="#ffffff" cx="119" cy="-117.4156" rx="102.7544" ry="29.3315"/>
<text text-anchor="middle" x="119" y="-121.6156" font-family="Times,serif" font-size="14.00" fill="#000000">Examinator tar ej</text>
<text text-anchor="middle" x="119" y="-104.8156" font-family="Times,serif" font-size="14.00" fill="#000000">till sig studenters kritik</text>
</g>
<!-- kursNamnd&#45;&gt;bajs -->
<g id="edge6" class="edge">
<title>kursNamnd&#45;&gt;bajs</title>
<path fill="none" stroke="#000000" d="M189.099,-184.5629C178.7117,-174.613 166.8516,-163.2523 155.8782,-152.741"/>
<polygon fill="#000000" stroke="#000000" points="158.0946,-150.0173 148.452,-145.6274 153.2524,-155.0724 158.0946,-150.0173"/>
</g>
<!-- gött -->
<g id="node7" class="node">
<title>gött</title>
<ellipse fill="#ffffff" stroke="#ffffff" cx="330" cy="-117.4156" rx="90.4758" ry="29.3315"/>
<text text-anchor="middle" x="330" y="-121.6156" font-family="Times,serif" font-size="14.00" fill="#000000">Examinator lyssnar,</text>
<text text-anchor="middle" x="330" y="-104.8156" font-family="Times,serif" font-size="14.00" fill="#000000"> det blir gött</text>
</g>
<!-- kursNamnd&#45;&gt;gött -->
<g id="edge5" class="edge">
<title>kursNamnd&#45;&gt;gött</title>
<path fill="none" stroke="#000000" d="M250.395,-184.8178C262.5933,-174.4894 276.6206,-162.6124 289.469,-151.7335"/>
<polygon fill="#000000" stroke="#000000" points="291.9196,-154.2447 297.2898,-145.1117 287.3963,-148.9025 291.9196,-154.2447"/>
</g>
<!-- dns -->
<g id="node8" class="node">
<title>dns</title>
<ellipse fill="#ffffff" stroke="#ffffff" cx="119" cy="-34" rx="82.2237" ry="18"/>
<text text-anchor="middle" x="119" y="-29.8" font-family="Times,serif" font-size="14.00" fill="#000000">DNS driver vidare</text>
</g>
<!-- bajs&#45;&gt;dns -->
<g id="edge7" class="edge">
<title>bajs&#45;&gt;dns</title>
<path fill="none" stroke="#000000" d="M119,-87.7715C119,-79.5664 119,-70.6796 119,-62.5388"/>
<polygon fill="#000000" stroke="#000000" points="122.5001,-62.3865 119,-52.3866 115.5001,-62.3866 122.5001,-62.3865"/>
</g>
</g>
</svg>