<?xml version="1.0" encoding="UTF-8" standalone="no"?>
<!DOCTYPE svg PUBLIC "-//W3C//DTD SVG 1.1//EN"
 "http://www.w3.org/Graphics/SVG/1.1/DTD/svg11.dtd">
<!-- Generated by graphviz version 2.40.1 (20161225.0304)
 -->
<!-- Title: G Pages: 1 -->
<svg width="482pt" height="260pt"
 viewBox="0.00 0.00 481.94 260.00" xmlns="http://www.w3.org/2000/svg" xmlns:xlink="http://www.w3.org/1999/xlink">
<g id="graph0" class="graph" transform="scale(1 1) rotate(0) translate(4 256)">
<title>G</title>
<polygon fill="#ffffff" stroke="transparent" points="-4,4 -4,-256 477.935,-256 477.935,4 -4,4"/>
<g id="clust1" class="cluster">
<title>cluster_0</title>
<polygon fill="#d3d3d3" stroke="#d3d3d3" points="88.695,-73 88.695,-233 254.4135,-233 254.4135,-73 88.695,-73"/>
</g>
<!-- Kursutvärdering -->
<g id="node1" class="node">
<title>Kursutvärdering</title>
<ellipse fill="#ffffff" stroke="#ffffff" cx="171.5543" cy="-207" rx="74.7188" ry="18"/>
<text text-anchor="middle" x="171.5543" y="-202.8" font-family="Times,serif" font-size="14.00" fill="#000000">Kursutvärdering</text>
</g>
<!-- Programråd -->
<g id="node2" class="node">
<title>Programråd</title>
<ellipse fill="#ffffff" stroke="#ffffff" cx="171.5543" cy="-153" rx="60.2537" ry="18"/>
<text text-anchor="middle" x="171.5543" y="-148.8" font-family="Times,serif" font-size="14.00" fill="#000000">Programråd</text>
</g>
<!-- Kursutvärdering&#45;&gt;Programråd -->
<!-- Lärare -->
<g id="node6" class="node">
<title>Lärare</title>
<ellipse fill="none" stroke="#000000" cx="378.1743" cy="-234" rx="36.5325" ry="18"/>
<text text-anchor="middle" x="378.1743" y="-229.8" font-family="Times,serif" font-size="14.00" fill="#000000">Lärare</text>
</g>
<!-- Kursutvärdering&#45;&gt;Lärare -->
<g id="edge6" class="edge">
<title>Kursutvärdering&#45;&gt;Lärare</title>
<path fill="none" stroke="#000000" d="M247.4541,-216.9182C279.9894,-221.1697 316.4344,-225.9322 342.5604,-229.3462"/>
<polygon fill="#000000" stroke="#000000" points="247.8674,-213.4425 237.4982,-215.6172 246.9604,-220.3835 247.8674,-213.4425"/>
</g>
<!-- Programansvarig -->
<g id="node7" class="node">
<title>Programansvarig</title>
<ellipse fill="none" stroke="#000000" cx="378.1743" cy="-180" rx="77.0062" ry="18"/>
<text text-anchor="middle" x="378.1743" y="-175.8" font-family="Times,serif" font-size="14.00" fill="#000000">Programansvarig</text>
</g>
<!-- Kursutvärdering&#45;&gt;Programansvarig -->
<g id="edge7" class="edge">
<title>Kursutvärdering&#45;&gt;Programansvarig</title>
<path fill="none" stroke="#000000" d="M247.5226,-197.0729C268.2338,-194.3664 290.5247,-191.4536 310.7269,-188.8137"/>
<polygon fill="#000000" stroke="#000000" points="246.9604,-193.6165 237.4982,-198.3828 247.8674,-200.5575 246.9604,-193.6165"/>
</g>
<!-- Institutionsråd -->
<g id="node3" class="node">
<title>Institutionsråd</title>
<ellipse fill="#ffffff" stroke="#ffffff" cx="171.5543" cy="-99" rx="70.6626" ry="18"/>
<text text-anchor="middle" x="171.5543" y="-94.8" font-family="Times,serif" font-size="14.00" fill="#000000">Institutionsråd</text>
</g>
<!-- Programråd&#45;&gt;Institutionsråd -->
<!-- Programråd&#45;&gt;Lärare -->
<g id="edge10" class="edge">
<title>Programråd&#45;&gt;Lärare</title>
<path fill="none" stroke="#000000" d="M228.4717,-167.7432C237.4581,-171.1343 246.4137,-175.1926 254.4135,-180 269.2314,-188.9047 267.4197,-198.3948 282.4135,-207 300.9904,-217.6616 324.0382,-224.3294 342.8673,-228.3711"/>
<polygon fill="#000000" stroke="#000000" points="229.3472,-164.3409 218.7523,-164.3215 227.0226,-170.9437 229.3472,-164.3409"/>
</g>
<!-- Programråd&#45;&gt;Programansvarig -->
<g id="edge8" class="edge">
<title>Programråd&#45;&gt;Programansvarig</title>
<path fill="none" stroke="#000000" d="M237.1465,-161.5713C260.662,-164.6441 287.1995,-168.1119 310.8586,-171.2036"/>
<polygon fill="#000000" stroke="#000000" points="237.2939,-158.0608 226.9246,-160.2355 236.3868,-165.0018 237.2939,-158.0608"/>
</g>
<!-- Industrirepresentanter -->
<g id="node8" class="node">
<title>Industrirepresentanter</title>
<ellipse fill="none" stroke="#000000" cx="378.1743" cy="-126" rx="95.5221" ry="18"/>
<text text-anchor="middle" x="378.1743" y="-121.8" font-family="Times,serif" font-size="14.00" fill="#000000">Industrirepresentanter</text>
</g>
<!-- Programråd&#45;&gt;Industrirepresentanter -->
<g id="edge9" class="edge">
<title>Programråd&#45;&gt;Industrirepresentanter</title>
<path fill="none" stroke="#000000" d="M237.0587,-144.4402C256.8477,-141.8543 278.7835,-138.9879 299.3462,-136.3008"/>
<polygon fill="#000000" stroke="#000000" points="236.3868,-140.9982 226.9246,-145.7645 237.2939,-147.9392 236.3868,-140.9982"/>
</g>
<!-- teachers2 -->
<g id="node4" class="node">
<title>teachers2</title>
<ellipse fill="none" stroke="#000000" cx="378.1743" cy="-72" rx="36.5325" ry="18"/>
<text text-anchor="middle" x="378.1743" y="-67.8" font-family="Times,serif" font-size="14.00" fill="#000000">Lärare</text>
</g>
<!-- Institutionsråd&#45;&gt;teachers2 -->
<g id="edge11" class="edge">
<title>Institutionsråd&#45;&gt;teachers2</title>
<path fill="none" stroke="#000000" d="M244.5208,-89.4651C277.6979,-85.1297 315.4567,-80.1956 342.358,-76.6803"/>
<polygon fill="#000000" stroke="#000000" points="243.8508,-86.0228 234.3886,-90.7891 244.7579,-92.9638 243.8508,-86.0228"/>
</g>
<!-- Institutionsråd&#45;&gt;Industrirepresentanter -->
<g id="edge13" class="edge">
<title>Institutionsråd&#45;&gt;Industrirepresentanter</title>
<path fill="none" stroke="#000000" d="M244.6245,-108.5484C262.293,-110.8573 281.2557,-113.3352 299.1826,-115.6778"/>
<polygon fill="#000000" stroke="#000000" points="244.7579,-105.0362 234.3886,-107.2109 243.8508,-111.9772 244.7579,-105.0362"/>
</g>
<!-- prefekt -->
<g id="node9" class="node">
<title>prefekt</title>
<ellipse fill="none" stroke="#000000" cx="378.1743" cy="-18" rx="38.2607" ry="18"/>
<text text-anchor="middle" x="378.1743" y="-13.8" font-family="Times,serif" font-size="14.00" fill="#000000">prefekt</text>
</g>
<!-- Institutionsråd&#45;&gt;prefekt -->
<g id="edge12" class="edge">
<title>Institutionsråd&#45;&gt;prefekt</title>
<path fill="none" stroke="#000000" d="M210.3951,-77.9644C231.3299,-67.1713 257.8422,-54.3624 282.4135,-45 302.2673,-37.4351 325.1492,-30.9066 343.5662,-26.165"/>
<polygon fill="#000000" stroke="#000000" points="208.7414,-74.8794 201.492,-82.6058 211.9774,-81.0866 208.7414,-74.8794"/>
</g>
<!-- DNS -->
<g id="node5" class="node">
<title>DNS</title>
<ellipse fill="none" stroke="#000000" cx="30.3475" cy="-153" rx="30.1958" ry="18"/>
<text text-anchor="middle" x="30.3475" y="-148.8" font-family="Times,serif" font-size="14.00" fill="#000000">DNS</text>
</g>
<!-- DNS&#45;&gt;Kursutvärdering -->
<g id="edge3" class="edge">
<title>DNS&#45;&gt;Kursutvärdering</title>
<path fill="none" stroke="#000000" d="M53.6364,-164.5465C64.2108,-169.5887 76.955,-175.3896 88.695,-180 97.1755,-183.3303 106.2511,-186.5879 115.1725,-189.6226"/>
<polygon fill="#000000" stroke="#000000" points="114.1637,-192.9756 124.7574,-192.821 116.3795,-186.3355 114.1637,-192.9756"/>
</g>
<!-- DNS&#45;&gt;Programråd -->
<g id="edge5" class="edge">
<title>DNS&#45;&gt;Programråd</title>
<path fill="none" stroke="#000000" d="M60.9873,-153C72.8013,-153 86.8413,-153 100.8847,-153"/>
<polygon fill="#000000" stroke="#000000" points="101.0794,-156.5001 111.0794,-153 101.0794,-149.5001 101.0794,-156.5001"/>
</g>
<!-- DNS&#45;&gt;Institutionsråd -->
<g id="edge4" class="edge">
<title>DNS&#45;&gt;Institutionsråd</title>
<path fill="none" stroke="#000000" d="M53.6364,-141.4535C64.2108,-136.4113 76.955,-130.6104 88.695,-126 97.4747,-122.5522 106.8923,-119.1823 116.1164,-116.057"/>
<polygon fill="#000000" stroke="#000000" points="117.2392,-119.3721 125.624,-112.8956 115.0304,-112.7297 117.2392,-119.3721"/>
</g>
</g>
</svg>