<?xml version="1.0" encoding="UTF-8" standalone="no"?>
<!DOCTYPE svg PUBLIC "-//W3C//DTD SVG 1.1//EN"
 "http://www.w3.org/Graphics/SVG/1.1/DTD/svg11.dtd">
<!-- Generated by graphviz version 2.40.1 (20161225.0304)
 -->
<!-- Title: G Pages: 1 -->
<svg width="872pt" height="363pt"
 viewBox="0.00 0.00 871.84 363.42" xmlns="http://www.w3.org/2000/svg" xmlns:xlink="http://www.w3.org/1999/xlink">
<g id="graph0" class="graph" transform="scale(1 1) rotate(0) translate(4 359.4156)">
<title>G</title>
<polygon fill="#ffffff" stroke="transparent" points="-4,4 -4,-359.4156 867.8372,-359.4156 867.8372,4 -4,4"/>
<g id="clust1" class="cluster">
<title>cluster_0</title>
<polygon fill="#d3d3d3" stroke="#d3d3d3" points="477.5972,-37 477.5972,-305 643.3157,-305 643.3157,-37 477.5972,-37"/>
</g>
<!-- Kursutvärdering -->
<g id="node1" class="node">
<title>Kursutvärdering</title>
<ellipse fill="#ffffff" stroke="#ffffff" cx="560.4565" cy="-279" rx="74.7188" ry="18"/>
<text text-anchor="middle" x="560.4565" y="-274.8" font-family="Times,serif" font-size="14.00" fill="#000000">Kursutvärdering</text>
</g>
<!-- Programråd -->
<g id="node2" class="node">
<title>Programråd</title>
<ellipse fill="#ffffff" stroke="#ffffff" cx="560.4565" cy="-171" rx="60.2537" ry="18"/>
<text text-anchor="middle" x="560.4565" y="-166.8" font-family="Times,serif" font-size="14.00" fill="#000000">Programråd</text>
</g>
<!-- Kursutvärdering&#45;&gt;Programråd -->
<!-- Lärare -->
<g id="node9" class="node">
<title>Lärare</title>
<ellipse fill="none" stroke="#000000" cx="768.0765" cy="-262" rx="36.5325" ry="18"/>
<text text-anchor="middle" x="768.0765" y="-257.8" font-family="Times,serif" font-size="14.00" fill="#000000">Lärare</text>
</g>
<!-- Kursutvärdering&#45;&gt;Lärare -->
<g id="edge11" class="edge">
<title>Kursutvärdering&#45;&gt;Lärare</title>
<path fill="none" stroke="#000000" d="M641.3368,-272.3775C672.5293,-269.8234 706.629,-267.0313 731.5934,-264.9872"/>
<polygon fill="#000000" stroke="#000000" points="641.0078,-268.8926 631.3268,-273.1971 641.5791,-275.8693 641.0078,-268.8926"/>
</g>
<!-- Programansvarig -->
<g id="node10" class="node">
<title>Programansvarig</title>
<ellipse fill="none" stroke="#000000" cx="768.0765" cy="-203" rx="77.0062" ry="18"/>
<text text-anchor="middle" x="768.0765" y="-198.8" font-family="Times,serif" font-size="14.00" fill="#000000">Programansvarig</text>
</g>
<!-- Kursutvärdering&#45;&gt;Programansvarig -->
<g id="edge12" class="edge">
<title>Kursutvärdering&#45;&gt;Programansvarig</title>
<path fill="none" stroke="#000000" d="M607.9947,-259.6671C627.7945,-251.7803 651.0785,-242.7192 672.3157,-235 688.6253,-229.0718 706.6416,-222.9431 722.6054,-217.6555"/>
<polygon fill="#000000" stroke="#000000" points="606.5637,-256.4697 598.5788,-263.4334 609.1635,-262.9691 606.5637,-256.4697"/>
</g>
<!-- Institutionsråd -->
<g id="node3" class="node">
<title>Institutionsråd</title>
<ellipse fill="#ffffff" stroke="#ffffff" cx="560.4565" cy="-63" rx="70.6626" ry="18"/>
<text text-anchor="middle" x="560.4565" y="-58.8" font-family="Times,serif" font-size="14.00" fill="#000000">Institutionsråd</text>
</g>
<!-- Programråd&#45;&gt;Institutionsråd -->
<!-- Programråd&#45;&gt;Lärare -->
<g id="edge15" class="edge">
<title>Programråd&#45;&gt;Lärare</title>
<path fill="none" stroke="#000000" d="M596.6902,-192.0403C618.236,-204.0602 646.3478,-218.9004 672.3157,-230 693.1081,-238.8874 717.2614,-246.9435 736.1088,-252.7493"/>
<polygon fill="#000000" stroke="#000000" points="598.3145,-188.9382 587.8837,-187.0808 594.8795,-195.0375 598.3145,-188.9382"/>
</g>
<!-- Programråd&#45;&gt;Programansvarig -->
<g id="edge13" class="edge">
<title>Programråd&#45;&gt;Programansvarig</title>
<path fill="none" stroke="#000000" d="M624.3496,-180.8477C649.4734,-184.72 678.2769,-189.1594 703.4696,-193.0423"/>
<polygon fill="#000000" stroke="#000000" points="624.6103,-177.3466 614.1938,-179.2824 623.5439,-184.2649 624.6103,-177.3466"/>
</g>
<!-- Industrirepresentanter -->
<g id="node11" class="node">
<title>Industrirepresentanter</title>
<ellipse fill="none" stroke="#000000" cx="768.0765" cy="-139" rx="95.5221" ry="18"/>
<text text-anchor="middle" x="768.0765" y="-134.8" font-family="Times,serif" font-size="14.00" fill="#000000">Industrirepresentanter</text>
</g>
<!-- Programråd&#45;&gt;Industrirepresentanter -->
<g id="edge14" class="edge">
<title>Programråd&#45;&gt;Industrirepresentanter</title>
<path fill="none" stroke="#000000" d="M624.1004,-161.1907C646.1377,-157.7942 671.0302,-153.9575 693.8435,-150.4414"/>
<polygon fill="#000000" stroke="#000000" points="623.5439,-157.7351 614.1938,-162.7176 624.6103,-164.6534 623.5439,-157.7351"/>
</g>
<!-- teachers2 -->
<g id="node8" class="node">
<title>teachers2</title>
<ellipse fill="none" stroke="#000000" cx="768.0765" cy="-18" rx="36.5325" ry="18"/>
<text text-anchor="middle" x="768.0765" y="-13.8" font-family="Times,serif" font-size="14.00" fill="#000000">Lärare</text>
</g>
<!-- Institutionsråd&#45;&gt;teachers2 -->
<g id="edge16" class="edge">
<title>Institutionsråd&#45;&gt;teachers2</title>
<path fill="none" stroke="#000000" d="M624.46,-49.1277C660.6803,-41.2773 704.52,-31.7754 734.1616,-25.3508"/>
<polygon fill="#000000" stroke="#000000" points="623.4958,-45.7554 614.4642,-51.2943 624.9787,-52.5965 623.4958,-45.7554"/>
</g>
<!-- Institutionsråd&#45;&gt;Industrirepresentanter -->
<g id="edge18" class="edge">
<title>Institutionsråd&#45;&gt;Industrirepresentanter</title>
<path fill="none" stroke="#000000" d="M610.4402,-81.2967C645.0879,-93.9796 690.7946,-110.7107 724.0654,-122.8896"/>
<polygon fill="#000000" stroke="#000000" points="611.5743,-77.9848 600.9806,-77.834 609.168,-84.5582 611.5743,-77.9848"/>
</g>
<!-- prefekt -->
<g id="node12" class="node">
<title>prefekt</title>
<ellipse fill="none" stroke="#000000" cx="768.0765" cy="-72" rx="38.2607" ry="18"/>
<text text-anchor="middle" x="768.0765" y="-67.8" font-family="Times,serif" font-size="14.00" fill="#000000">prefekt</text>
</g>
<!-- Institutionsråd&#45;&gt;prefekt -->
<g id="edge17" class="edge">
<title>Institutionsråd&#45;&gt;prefekt</title>
<path fill="none" stroke="#000000" d="M640.436,-66.467C671.0924,-67.7959 704.6797,-69.2519 729.7027,-70.3366"/>
<polygon fill="#000000" stroke="#000000" points="640.3107,-62.9584 630.1685,-66.0219 640.0075,-69.9518 640.3107,-62.9584"/>
</g>
<!-- kårre -->
<g id="node4" class="node">
<title>kårre</title>
<ellipse fill="none" stroke="#000000" cx="359.7506" cy="-326" rx="88.6934" ry="29.3315"/>
<text text-anchor="middle" x="359.7506" y="-330.2" font-family="Times,serif" font-size="14.00" fill="#000000">Utbildningsenheten</text>
<text text-anchor="middle" x="359.7506" y="-313.4" font-family="Times,serif" font-size="14.00" fill="#000000">(kåren)</text>
</g>
<!-- Utbildningsutskott -->
<g id="node5" class="node">
<title>Utbildningsutskott</title>
<ellipse fill="none" stroke="#000000" cx="359.7506" cy="-243" rx="82.865" ry="18"/>
<text text-anchor="middle" x="359.7506" y="-238.8" font-family="Times,serif" font-size="14.00" fill="#000000">Utbildningsutskott</text>
</g>
<!-- kårre&#45;&gt;Utbildningsutskott -->
<g id="edge3" class="edge">
<title>kårre&#45;&gt;Utbildningsutskott</title>
<path fill="none" stroke="#000000" d="M359.7506,-296.3644C359.7506,-288.0208 359.7506,-279.6772 359.7506,-271.3336"/>
<polygon fill="#000000" stroke="#000000" points="363.2507,-271.1562 359.7506,-261.1563 356.2507,-271.1563 363.2507,-271.1562"/>
</g>
<!-- DNS -->
<g id="node6" class="node">
<title>DNS</title>
<ellipse fill="none" stroke="#000000" cx="359.7506" cy="-171" rx="30.1958" ry="18"/>
<text text-anchor="middle" x="359.7506" y="-166.8" font-family="Times,serif" font-size="14.00" fill="#000000">DNS</text>
</g>
<!-- Utbildningsutskott&#45;&gt;DNS -->
<g id="edge4" class="edge">
<title>Utbildningsutskott&#45;&gt;DNS</title>
<path fill="none" stroke="#000000" d="M359.7506,-214.7739C359.7506,-206.1826 359.7506,-197.5913 359.7506,-189"/>
<polygon fill="#000000" stroke="#000000" points="356.2507,-214.8593 359.7506,-224.8594 363.2507,-214.8594 356.2507,-214.8593"/>
</g>
<!-- DNS&#45;&gt;Kursutvärdering -->
<g id="edge8" class="edge">
<title>DNS&#45;&gt;Kursutvärdering</title>
<path fill="none" stroke="#000000" d="M383.2791,-182.5636C401.2722,-191.4919 426.639,-204.263 448.5972,-216 473.5363,-229.3303 501.2309,-244.9219 522.8241,-257.259"/>
<polygon fill="#000000" stroke="#000000" points="521.2619,-260.3977 531.6789,-262.331 524.7412,-254.3236 521.2619,-260.3977"/>
</g>
<!-- DNS&#45;&gt;Programråd -->
<g id="edge10" class="edge">
<title>DNS&#45;&gt;Programråd</title>
<path fill="none" stroke="#000000" d="M390.2335,-171C416.4701,-171 455.3559,-171 489.3403,-171"/>
<polygon fill="#000000" stroke="#000000" points="489.7105,-174.5001 499.7105,-171 489.7104,-167.5001 489.7105,-174.5001"/>
</g>
<!-- DNS&#45;&gt;Institutionsråd -->
<g id="edge9" class="edge">
<title>DNS&#45;&gt;Institutionsråd</title>
<path fill="none" stroke="#000000" d="M382.384,-158.821C416.0286,-140.7168 479.7036,-106.4532 521.0885,-84.1839"/>
<polygon fill="#000000" stroke="#000000" points="522.9257,-87.17 530.0732,-79.3492 519.6087,-81.0057 522.9257,-87.17"/>
</g>
<!-- studs -->
<g id="node7" class="node">
<title>studs</title>
<ellipse fill="none" stroke="#000000" cx="53.1024" cy="-171" rx="53.2051" ry="29.3315"/>
<text text-anchor="middle" x="53.1024" y="-175.2" font-family="Times,serif" font-size="14.00" fill="#000000">Studenters</text>
<text text-anchor="middle" x="53.1024" y="-158.4" font-family="Times,serif" font-size="14.00" fill="#000000">åsikter</text>
</g>
<!-- studs&#45;&gt;DNS -->
<g id="edge5" class="edge">
<title>studs&#45;&gt;DNS</title>
<path fill="none" stroke="#000000" d="M100.2164,-184.6621C108.1606,-186.4646 116.3707,-188.0238 124.2049,-189 180.9655,-196.0731 195.9035,-193.7677 252.9041,-189 275.5717,-187.104 300.6643,-182.9831 320.8335,-179.1621"/>
<polygon fill="#000000" stroke="#000000" points="321.7456,-182.5504 330.893,-177.2048 320.4086,-175.6793 321.7456,-182.5504"/>
<text text-anchor="middle" x="188.5545" y="-197.2" font-family="Times,serif" font-size="14.00" fill="#000000">Mail</text>
</g>
<!-- studs&#45;&gt;DNS -->
<g id="edge6" class="edge">
<title>studs&#45;&gt;DNS</title>
<path fill="none" stroke="#000000" d="M106.2873,-168.6769C112.3296,-168.4809 118.3998,-168.3143 124.2049,-168.2 181.3935,-167.0744 195.7094,-167.4507 252.9041,-168.2 274.8666,-168.4877 299.3619,-169.108 319.3525,-169.6918"/>
<polygon fill="#000000" stroke="#000000" points="319.2579,-173.1904 329.3584,-169.9917 319.4678,-166.1935 319.2579,-173.1904"/>
<text text-anchor="middle" x="188.5545" y="-172.2" font-family="Times,serif" font-size="14.00" fill="#000000">Personligt kontaktande</text>
</g>
<!-- studs&#45;&gt;DNS -->
<g id="edge7" class="edge">
<title>studs&#45;&gt;DNS</title>
<path fill="none" stroke="#000000" d="M96.1123,-153.4181C105.2396,-150.4216 114.9242,-147.7721 124.2049,-146.2 180.6012,-136.6469 196.076,-139.6914 252.9041,-146.2 276.372,-148.8878 302.1831,-154.7935 322.5568,-160.1676"/>
<polygon fill="#000000" stroke="#000000" points="321.8129,-163.5921 332.3801,-162.8279 323.6427,-156.8355 321.8129,-163.5921"/>
<text text-anchor="middle" x="188.5545" y="-150.2" font-family="Times,serif" font-size="14.00" fill="#000000">Studentrösten</text>
</g>
</g>
</svg>
