<?xml version="1.0" encoding="UTF-8" standalone="no"?>
<!DOCTYPE svg PUBLIC "-//W3C//DTD SVG 1.1//EN"
 "http://www.w3.org/Graphics/SVG/1.1/DTD/svg11.dtd">
<!-- Generated by graphviz version 2.40.1 (20161225.0304)
 -->
<!-- Title: G Pages: 1 -->
<svg width="309pt" height="78pt"
 viewBox="0.00 0.00 309.28 78.37" xmlns="http://www.w3.org/2000/svg" xmlns:xlink="http://www.w3.org/1999/xlink">
<g id="graph0" class="graph" transform="scale(1 1) rotate(0) translate(4 74.373)">
<title>G</title>
<polygon fill="#ffffff" stroke="transparent" points="-4,4 -4,-74.373 305.2793,-74.373 305.2793,4 -4,4"/>
<!-- studs -->
<g id="node1" class="node">
<title>studs</title>
<ellipse fill="none" stroke="#000000" cx="53.1024" cy="-31.573" rx="53.2051" ry="29.3315"/>
<text text-anchor="middle" x="53.1024" y="-35.773" font-family="Times,serif" font-size="14.00" fill="#000000">Studenters</text>
<text text-anchor="middle" x="53.1024" y="-18.973" font-family="Times,serif" font-size="14.00" fill="#000000">åsikter</text>
</g>
<!-- DNS -->
<g id="node2" class="node">
<title>DNS</title>
<ellipse fill="none" stroke="#000000" cx="270.9318" cy="-31.573" rx="30.1958" ry="18"/>
<text text-anchor="middle" x="270.9318" y="-27.373" font-family="Times,serif" font-size="14.00" fill="#000000">DNS</text>
</g>
<!-- studs&#45;&gt;DNS -->
<g id="edge1" class="edge">
<title>studs&#45;&gt;DNS</title>
<path fill="none" stroke="#000000" d="M100.2164,-45.2351C108.1606,-47.0376 116.3707,-48.5967 124.2049,-49.573 167.5935,-54.9797 179.5525,-57.3236 222.5843,-49.573 227.2946,-48.7246 232.1451,-47.446 236.872,-45.954"/>
<polygon fill="#000000" stroke="#000000" points="238.0265,-49.2581 246.3165,-42.6606 235.7217,-42.6485 238.0265,-49.2581"/>
<text text-anchor="middle" x="173.3946" y="-57.773" font-family="Times,serif" font-size="14.00" fill="#000000">Mail</text>
</g>
<!-- studs&#45;&gt;DNS -->
<g id="edge2" class="edge">
<title>studs&#45;&gt;DNS</title>
<path fill="none" stroke="#000000" d="M106.2873,-29.2499C112.3296,-29.0539 118.3998,-28.8872 124.2049,-28.773 167.9206,-27.9125 178.8784,-27.5084 222.5843,-28.773 225.25,-28.8501 227.9974,-28.9511 230.7652,-29.0689"/>
<polygon fill="#000000" stroke="#000000" points="230.6102,-32.5654 240.7687,-29.5561 230.9508,-25.5736 230.6102,-32.5654"/>
<text text-anchor="middle" x="173.3946" y="-32.773" font-family="Times,serif" font-size="14.00" fill="#000000">Personlig kontakt</text>
</g>
<!-- studs&#45;&gt;DNS -->
<g id="edge3" class="edge">
<title>studs&#45;&gt;DNS</title>
<path fill="none" stroke="#000000" d="M96.1123,-13.9911C105.2396,-10.9945 114.9242,-8.345 124.2049,-6.773 167.315,.5296 180.0821,3.492 222.5843,-6.773 228.8427,-8.2845 235.2005,-10.7527 241.1599,-13.5602"/>
<polygon fill="#000000" stroke="#000000" points="239.6303,-16.7092 250.125,-18.1623 242.8271,-10.4817 239.6303,-16.7092"/>
<text text-anchor="middle" x="173.3946" y="-10.773" font-family="Times,serif" font-size="14.00" fill="#000000">Studentrösten</text>
</g>
</g>
</svg>
